<?xml version="1.0" standalone="no"?>
<!DOCTYPE svg PUBLIC "-//W3C//DTD SVG 20010904//EN"
 "http://www.w3.org/TR/2001/REC-SVG-20010904/DTD/svg10.dtd">
<svg version="1.0" xmlns="http://www.w3.org/2000/svg"
 width="1200.000000pt" height="1800.000000pt" viewBox="0 0 1200.000000 1800.000000"
 preserveAspectRatio="xMidYMid meet">

<g transform="translate(0.000000,1800.000000) scale(0.100000,-0.100000)"
fill="#000000" stroke="none">
<path d="M175 17798 c-3 -7 -4 -3939 -3 -8738 l3 -8725 5778 -3 5777 -2 0
8740 0 8740 -5775 0 c-4611 0 -5777 -3 -5780 -12z m10895 -2058 l0 -1450
-5155 0 -5155 0 0 1450 0 1450 5155 0 5155 0 0 -1450z m0 -7405 l0 -5325
-5160 0 -5160 0 0 5325 0 5325 5160 0 5160 0 0 -5325z m-6541 -5946 c500 -35
802 -179 875 -417 l7 -22 -383 6 -383 7 -40 43 c-46 48 -77 59 -217 76 -166
20 -336 -10 -353 -62 -22 -71 76 -104 472 -160 414 -59 607 -103 747 -169 112
-53 178 -107 211 -176 24 -49 27 -64 23 -128 -4 -56 -12 -86 -34 -126 -91
-169 -361 -283 -773 -326 -183 -20 -570 -19 -731 0 -312 38 -556 130 -683 257
-49 49 -97 135 -97 176 l0 22 394 0 394 0 27 -36 c36 -47 107 -79 219 -99 181
-31 397 -5 457 54 34 35 30 63 -15 90 -51 31 -134 49 -466 96 -471 68 -600 99
-752 177 -219 113 -270 307 -123 467 174 187 674 290 1224 250z m-1709 -174
l0 -165 -617 -2 -618 -3 -3 -97 -3 -98 526 0 525 0 0 -170 0 -170 -525 0 -526
0 3 -107 3 -108 643 -3 642 -2 0 -165 0 -165 -1057 2 -1058 3 -3 695 c-1 382
0 701 3 708 3 9 220 12 1035 12 l1030 0 0 -165z m4525 155 c530 -23 769 -97
858 -265 29 -54 31 -192 4 -246 -50 -100 -163 -176 -318 -214 l-74 -18 112
-28 c168 -42 230 -79 271 -163 24 -48 41 -166 42 -287 0 -90 15 -128 51 -136
22 -4 29 -11 29 -29 l0 -24 -421 2 -422 3 -14 40 c-8 22 -18 100 -23 173 -7
100 -13 141 -27 165 -22 37 -71 72 -122 87 -40 12 -301 29 -453 30 l-98 0 0
-245 0 -245 -415 0 -415 0 0 705 0 705 608 0 c334 0 706 -5 827 -10z m3000 -9
c337 -38 517 -107 590 -225 25 -41 30 -60 30 -110 -1 -69 -18 -108 -71 -161
-45 -45 -103 -82 -182 -115 l-63 -27 73 -18 c169 -40 292 -131 323 -240 42
-143 -33 -279 -198 -360 -153 -74 -338 -109 -662 -125 -212 -11 -1424 -30
-1437 -23 -5 2 -8 320 -8 707 0 386 3 706 8 710 11 12 1482 0 1597 -13z"/>
<path d="M9553 16570 c-55 -11 -91 -31 -129 -72 -42 -44 -57 -76 -85 -178 -22
-81 -23 -105 -27 -505 -5 -552 9 -676 92 -798 59 -87 122 -121 225 -121 127 1
212 57 266 178 49 108 57 208 53 721 -4 458 -5 472 -27 548 -33 110 -72 165
-141 199 -61 29 -158 41 -227 28z m164 -289 c13 -31 15 -105 11 -531 -5 -537
-7 -554 -60 -593 -37 -27 -74 -15 -99 33 -18 33 -19 66 -19 547 0 461 2 516
17 548 32 66 122 64 150 -4z"/>
<path d="M1040 15740 l0 -820 330 0 330 0 0 125 0 125 -205 0 -205 0 0 240 0
240 185 0 185 0 0 125 0 125 -185 0 -185 0 0 205 0 205 200 0 200 0 0 125 0
125 -325 0 -325 0 0 -820z"/>
<path d="M1770 16548 c1 -7 65 -375 144 -818 l142 -805 151 -3 151 -3 6 28 c3
16 69 377 146 803 78 426 143 783 146 793 5 16 -5 17 -118 17 l-123 0 -99
-577 c-55 -318 -102 -583 -105 -590 -4 -7 -47 253 -96 577 l-90 590 -127 0
c-96 0 -128 -3 -128 -12z"/>
<path d="M2770 15740 l0 -820 330 0 330 0 0 125 0 125 -205 0 -205 0 0 240 0
240 180 0 180 0 0 125 0 125 -180 0 -180 0 0 205 0 205 195 0 195 0 0 125 0
125 -320 0 -320 0 0 -820z"/>
<path d="M3580 15740 l0 -820 125 0 125 0 0 168 c0 92 3 245 7 340 l6 172 46
0 c28 0 59 -8 79 -20 58 -36 65 -67 73 -335 4 -132 12 -257 18 -277 l12 -38
120 0 120 0 -3 308 c-3 296 -4 309 -26 357 -29 63 -75 111 -121 126 l-35 12
36 18 c87 45 145 175 155 349 12 216 -77 414 -203 449 -23 6 -142 11 -286 11
l-248 0 0 -820z m425 540 c35 -33 55 -108 55 -204 0 -104 -14 -152 -55 -193
-31 -31 -37 -33 -104 -33 l-71 0 0 231 0 231 74 -4 c62 -3 79 -7 101 -28z"/>
<path d="M4394 16543 c3 -10 71 -253 151 -539 l145 -522 0 -144 c0 -80 3 -206
7 -281 l6 -137 124 0 123 0 0 288 0 288 163 532 164 532 -126 0 -127 0 -84
-312 c-46 -172 -88 -328 -94 -346 -11 -30 -17 -9 -91 280 -43 172 -83 328 -87
346 l-9 32 -135 0 c-124 0 -135 -1 -130 -17z"/>
<path d="M5669 16547 c-149 -42 -229 -145 -269 -347 -20 -99 -21 -129 -18
-515 4 -381 6 -415 25 -487 28 -99 55 -150 109 -208 67 -71 127 -95 244 -95
82 0 103 4 152 27 150 70 224 205 248 454 12 122 12 585 1 714 -22 246 -101
400 -227 444 -64 23 -205 30 -265 13z m179 -232 c69 -58 86 -190 79 -642 -5
-352 -12 -418 -52 -480 -28 -43 -46 -52 -98 -53 -63 0 -98 33 -124 116 -16 53
-18 101 -18 484 0 470 4 505 64 569 39 41 104 44 149 6z"/>
<path d="M6380 15740 l0 -820 120 0 120 0 2 580 3 579 155 -579 155 -580 162
0 163 0 0 820 0 820 -115 0 -115 0 -2 -562 -3 -563 -155 562 -155 563 -167 0
-168 0 0 -820z"/>
<path d="M7470 15740 l0 -820 330 0 330 0 0 125 0 125 -205 0 -205 0 0 240 0
240 180 0 180 0 0 125 0 125 -180 0 -180 0 0 205 0 205 200 0 200 0 0 125 0
125 -325 0 -325 0 0 -820z"/>
<path d="M8825 16513 c-11 -21 -59 -79 -107 -129 l-88 -91 0 -147 0 -147 30
21 c17 12 60 51 95 87 l65 64 0 -625 0 -626 125 0 125 0 0 815 0 815 -113 0
-112 0 -20 -37z"/>
<path d="M10320 16015 l0 -225 -140 0 -140 0 0 -125 0 -125 140 0 140 0 0
-225 0 -225 90 0 90 0 0 225 0 225 140 0 140 0 0 125 0 125 -140 0 -140 0 0
225 0 225 -90 0 -90 0 0 -225z"/>
<path d="M4656 12129 c-1710 -511 -3111 -931 -3113 -932 -2 -2 287 -922 642
-2045 355 -1123 645 -2046 645 -2052 0 -6 -50 -10 -134 -10 l-133 0 -39 -31
c-149 -120 -414 -261 -625 -330 l-129 -43 0 -248 c0 -233 1 -249 18 -244 130
37 179 53 242 78 126 50 296 139 408 215 l107 72 3 -1029 2 -1030 300 0 300 0
1 793 1 792 50 -155 c27 -85 73 -229 102 -320 l52 -164 -4 221 c-6 309 17 483
90 693 120 340 360 571 701 675 184 55 465 79 664 56 538 -63 899 -407 1012
-966 30 -149 43 -369 31 -534 -37 -524 -238 -886 -600 -1080 -101 -54 -264
-106 -393 -125 -135 -21 -392 -21 -517 -1 -338 54 -597 213 -772 475 -28 41
-48 68 -46 60 3 -8 97 -305 208 -660 112 -355 206 -648 209 -652 3 -4 353 97
776 223 424 126 1024 306 1335 399 311 93 693 207 850 254 157 46 503 150 770
229 1620 484 1887 564 2287 683 183 55 331 104 330 109 -2 6 -143 449 -312
985 -170 536 -310 977 -311 979 -3 3 -185 -51 -2258 -670 -533 -160 -972 -286
-976 -282 -10 10 -270 836 -266 841 2 2 651 196 1442 433 791 236 1439 431
1441 432 3 3 -615 1969 -621 1974 -1 1 -651 -191 -1446 -427 -794 -237 -1445
-428 -1447 -426 -8 8 -254 799 -249 803 2 3 703 214 1557 469 853 255 1553
465 1555 466 6 7 -612 1972 -621 1974 -6 1 -1409 -416 -3119 -927z m-1506
-5526 c0 -267 -2 -484 -5 -482 -4 5 -305 953 -305 963 0 3 70 6 155 6 l155 0
0 -487z m3670 -768 l0 -215 220 0 220 0 0 -120 0 -120 -220 0 -220 0 0 -215 0
-215 -130 0 -130 0 0 215 0 215 -220 0 -220 0 0 120 0 120 220 0 220 0 0 215
0 215 130 0 130 0 0 -215z"/>
<path d="M4433 6801 c-222 -55 -371 -206 -457 -463 -55 -163 -70 -294 -71
-613 0 -238 3 -307 18 -385 41 -215 113 -368 226 -480 77 -75 154 -120 266
-152 67 -19 103 -23 220 -22 125 0 148 3 213 26 243 87 391 308 456 678 23
131 32 425 17 586 -45 485 -208 751 -507 828 -86 22 -286 20 -381 -3z"/>
<path d="M3381 5345 c-3 -34 104 -364 115 -353 1 2 -23 85 -56 183 -32 99 -59
176 -59 170z"/>
<path d="M6740 1905 l0 -145 168 0 c202 0 379 14 449 35 98 29 130 103 73 169
-58 65 -176 86 -497 86 l-193 0 0 -145z"/>
<path d="M9574 2041 c-2 -2 -4 -58 -4 -124 l0 -119 243 4 c268 5 326 15 379
68 76 77 -4 140 -201 160 -100 10 -410 18 -417 11z"/>
<path d="M9572 1423 l3 -128 255 0 c348 1 440 21 464 103 14 49 -5 79 -67 107
-75 34 -179 45 -433 45 l-225 0 3 -127z"/>
</g>
</svg>
